<svg xmlns="http://www.w3.org/2000/svg" width="191" height="166" viewBox="0 0 191 166"><defs><clipPath id="67koa"><path d="M.5-.03h104.397v165.525H.5z"/></clipPath></defs><g><g><g><path fill="#ec1d24" d="M169.982 90.686c-.55-.292.275-2.484 1.24-3.948 1.36-2.06 2.342-4.387 3.306-3.803.966.586 1.378 2.78-.137 5.267-1.516 2.484-3.444 3.508-4.409 2.484m11.594-16.964s-4.377-2.266-8.281 0c-5.796 3.363-10.526 8.644-12.973 15.352-2.346 6.433-.14 14.768 5.244 14.768 4.692 0 7.314-4.97 9.385-5.848 0 0-1.656 21.346-.966 26.463.69 5.118 1.915 9.029 6.625 9.796 3.588.585 5.52-4.24 5.52-8.04 0-3.015.277-7.02-.138-12.282-.405-5.162 1.045-28.163 1.103-29.07.053-.115.372-.947 1.933-5.29 2.21-6.14 1.934-9.504-.827-10.82-2.76-1.315-6.625 4.971-6.625 4.971"/></g><g><g/><g clip-path="url(#67koa)"><path fill="#ec1d24" d="M63.1 45.052c-2.661 3.577-17.45 24.444-28.985 38.753-9.247 11.47-25.14 27.127-27.211 28.32-2.07 1.194-4.437 4.173-5.916 1.79-1.224-1.975 0-4.77 2.07-6.262 2.071-1.49 15.085-16.694 33.424-43.225 9.707-14.045 24.253-40.244 26.323-45.312 2.07-5.067 2.942-10.135 5.916-10.135 4.732 0 5.751 6.873 5.028 20.271-.888 16.396-1.479 22.059-1.479 22.059s5.915-8.048 23.957-44.417c1.184-2.981 2.93-9.337 7.395-5.962 3.549 2.682-1.085 13.15-4.438 27.724-2.561 11.137-4.759 24.2-7.099 35.474-6.802 32.793-4.73 53.66-3.549 73.633 1.131 19.083 2.663 22.656 2.663 22.656s.886 4.77-1.183 5.068c-2.07.298-9.76-6.857-13.014-15.205-3.253-8.347-5.324-16.992-4.437-35.772 1.48-31.3 9.76-61.41 9.76-61.41-3.844 4.174-10.943 22.954-13.901 29.512-2.957 6.56-4.436 16.993-6.803 18.484-2.366 1.489-7.394-.894-7.394-5.665 0-4.77 7.691-42.33 8.873-50.38"/></g></g><g><path fill="#ec1d24" d="M108.181 61.266c-4.393 1.246-7.59 0-9.455 1.384-1.748 1.298-2.428 4.795.133 7.615 2.265 2.492 5.46 1.8 7.858.278 3.257-2.07 3.929-5.208 5.86-6.785 1.864-1.523 3.69-3.236 3.463-4.708-.667-4.292-4.224 1.185-7.859 2.216"/></g><g><path fill="#ec1d24" d="M114.051 84.781c1.397-.876 3.095-2.808 2.955-4.369-.14-1.56-1.407-3.12-4.22-2.965-2.814.156-9.987 5.15-13.505 9.83-3.517 4.681-7.651 12.378-4.08 17.166 3.378 4.525 9.707 2.028 10.974 1.091 1.265-.935 6.471-5.303 6.471-5.303s3.094 7.334 6.892 7.334c4.606 0 9.566-3.278 17.725-16.385 1.9-3.053 2.45-4.917 5.205-4.682 1.829.156-2.955 9.05-.562 15.136 1.233 3.142 2.531 4.994 6.33 4.994 3.657 0 7.736-8.738 6.47-11.86-1.162-2.863-3.704 1.559-5.345.469-.704-.469-.255-5.142-.14-7.023.205-3.42.07-5.703-.704-7.49-1.83-4.212-10.129-2.808-10.129-2.808-6.47-5.306-15.052 4.057-11.957 12.796-1.548 2.497-5.064 4.836-5.064 4.836.563-13.42-5.24-10.847-6.471-9.518-5.485 5.928-9.061 11.136-10.269 9.987-.876-.834-.14-4.37 6.752-8.427.756-.445 1.856-2.296 2.672-2.809"/></g><g><path fill="#ec1d24" d="M155.175 150.819c-1.52-4.01 4.57-10.939 11.298-10.939 6.73 0 11.046.801 10.666 3.321-.24 1.597-2.627 1.123-5.38 1.834-1.95.503-4.562 2.285-5.886 4.296-5.318 8.074-9.45 4.779-10.698 1.488"/></g></g></g></svg>