<svg xmlns="http://www.w3.org/2000/svg" width="201" height="175" viewBox="0 0 201 175"><defs><clipPath id="9uo2a"><path d="M0 .29h111.025v174.29H0z"/></clipPath></defs><g><g><g><g><path fill="#ec1d24" d="M178.906 94.827c-.594-.311.296-2.645 1.335-4.204 1.465-2.193 2.521-4.67 3.56-4.047 1.04.623 1.484 2.958-.148 5.606-1.632 2.645-3.709 3.735-4.747 2.645M191.39 76.78s-4.713-2.41-8.918 0c-6.24 3.577-11.334 9.195-13.969 16.33-2.526 6.842-.15 15.707 5.648 15.707 5.052 0 7.875-5.287 10.105-6.22 0 0-1.784 22.705-1.04 28.148.743 5.443 2.062 9.603 7.133 10.42 3.863.621 5.944-4.51 5.944-8.553 0-3.206.298-7.466-.148-13.063-.437-5.49 1.125-29.956 1.187-30.92.057-.123.4-1.008 2.082-5.627 2.379-6.532 2.082-10.11-.89-11.51-2.973-1.398-7.134 5.288-7.134 5.288"/></g><g><g/><g clip-path="url(#9uo2a)"><path fill="#ec1d24" d="M66.575 47.759c-2.83 3.766-18.558 25.738-30.826 40.805-9.833 12.078-26.736 28.564-28.938 29.819-2.203 1.258-4.719 4.394-6.292 1.884-1.302-2.078 0-5.022 2.202-6.593 2.202-1.568 16.042-17.578 35.545-45.513C48.59 53.372 64.06 25.786 66.261 20.45c2.2-5.335 3.13-10.672 6.292-10.672 5.032 0 6.116 7.237 5.347 21.345-.945 17.263-1.573 23.226-1.573 23.226s6.29-8.474 25.478-46.769c1.26-3.138 3.115-9.83 7.864-6.277 3.774 2.824-1.154 13.847-4.72 29.192-2.723 11.727-5.06 25.48-7.549 37.353-7.234 34.528-5.031 56.5-3.774 77.53 1.203 20.095 2.831 23.856 2.831 23.856s.943 5.023-1.258 5.336c-2.201.315-10.379-7.22-13.84-16.009-3.459-8.79-5.662-17.892-4.718-37.666 1.573-32.958 10.38-64.661 10.38-64.661-4.09 4.394-11.638 24.169-14.785 31.074-3.144 6.906-4.717 17.892-7.234 19.462-2.517 1.568-7.863-.94-7.863-5.965 0-5.022 8.179-44.571 9.436-53.046"/></g></g><g><path fill="#ec1d24" d="M114.19 64.388c-4.824 1.368-8.334 0-10.382 1.52-1.919 1.423-2.666 5.26.146 8.354 2.487 2.734 5.996 1.974 8.628.304 3.575-2.27 4.313-5.713 6.433-7.443 2.046-1.671 4.052-3.55 3.802-5.165-.732-4.71-4.637 1.3-8.628 2.43"/></g><g><path fill="#ec1d24" d="M120.542 88.237c1.495-.937 3.313-3.003 3.162-4.673-.15-1.669-1.506-3.338-4.516-3.172-3.012.167-10.689 5.508-14.454 10.516-3.764 5.007-8.189 13.24-4.366 18.362 3.614 4.84 10.389 2.17 11.744 1.167 1.354-1 6.926-5.673 6.926-5.673s3.312 7.845 7.377 7.845c4.929 0 10.237-3.506 18.97-17.526 2.033-3.266 2.62-5.261 5.57-5.01 1.957.167-3.162 9.682-.602 16.192 1.32 3.36 2.71 5.342 6.775 5.342 3.914 0 8.28-9.347 6.924-12.686-1.243-3.063-3.963 1.667-5.72.5-.752-.5-.272-5.5-.15-7.511.22-3.658.076-6.1-.753-8.013-1.958-4.506-10.84-3.004-10.84-3.004-6.926-5.675-16.11 4.34-12.798 13.689-1.656 2.67-5.42 5.173-5.42 5.173.603-14.356-5.608-11.604-6.925-10.181-5.87 6.34-9.698 11.912-10.99 10.682-.938-.892-.151-4.675 7.226-9.014.81-.476 1.986-2.456 2.86-3.005"/></g><g><path fill="#ec1d24" d="M162.963 157.981c-1.636-4.398 4.921-12.001 12.166-12.001 7.246 0 11.894.879 11.485 3.644-.26 1.752-2.829 1.232-5.793 2.011-2.1.553-4.913 2.507-6.339 4.714-5.726 8.859-10.175 5.243-11.52 1.632"/></g></g></g><g><g><text dominant-baseline="text-before-edge" font-family="'Lato','Lato-Regular'" font-size="12" letter-spacing="1.58" transform="translate(99 123)"><tspan>SINCE</tspan><tspan letter-spacing="1.28"> </tspan><tspan letter-spacing="1.98">194</tspan><tspan letter-spacing="-.9">6</tspan></text></g></g></g></svg>